<?xml version="1.0" encoding="UTF-8"?>
<svg id="Calque_1" xmlns="http://www.w3.org/2000/svg" version="1.1" viewBox="0 0 16 16">
  <!-- Generator: Adobe Illustrator 29.1.0, SVG Export Plug-In . SVG Version: 2.1.0 Build 142)  -->
  <defs>
    <style>
      .st0 {
        fill: #faf8f5;
      }

      .st1 {
        fill: #8ba888;
      }
    </style>
  </defs>
  <rect class="st0" x="3.9" y="3.3" width="9.5" height="9.5"/>
  <path class="st1" d="M2,16c-1.1,0-2-.9-2-2V2C0,.9.9,0,2,0h12c1.1,0,2,.9,2,2v12c0,1.1-.9,2-2,2H2ZM8.5,11.5v-5.8l2.1,2.1c.2.2.5.2.7,0s.2-.5,0-.7l-3-3c-.2-.2-.5-.2-.7,0h0l-3,3c-.2.2-.2.5,0,.7s.5.2.7,0l2.1-2.1v5.8c0,.3.2.5.5.5s.5-.2.5-.5"/>
</svg>