<?xml version="1.0" encoding="UTF-8"?>
<svg id="Calque_1" xmlns="http://www.w3.org/2000/svg" version="1.1" viewBox="0 0 16 16">
  <!-- Generator: Adobe Illustrator 29.1.0, SVG Export Plug-In . SVG Version: 2.1.0 Build 142)  -->
  <defs>
    <style>
      .st0 {
        fill: #262626;
        fill-rule: evenodd;
      }
    </style>
  </defs>
  <path class="st0" d="M2.5,12c0-.3.2-.5.5-.5h10c.3,0,.5.2.5.5s-.2.5-.5.5H3c-.3,0-.5-.2-.5-.5M2.5,8c0-.3.2-.5.5-.5h10c.3,0,.5.2.5.5s-.2.5-.5.5H3c-.3,0-.5-.2-.5-.5M2.5,4c0-.3.2-.5.5-.5h10c.3,0,.5.2.5.5s-.2.5-.5.5H3c-.3,0-.5-.2-.5-.5"/>
</svg>