<?xml version="1.0" encoding="UTF-8"?>
<svg id="Calque_1" data-name="Calque 1" xmlns="http://www.w3.org/2000/svg" viewBox="0 0 6025.22 2011">
  <defs>
    <style>
      .cls-1 {
        fill: #fbf9f6;
      }

      .cls-2 {
        stroke: #1d1d1b;
        stroke-miterlimit: 10;
      }

      .cls-2, .cls-3 {
        fill: #262626;
      }
    </style>
  </defs>
  <g id="Logo">
    <circle class="cls-2" cx="1319.41" cy="605.05" r="250"/>
    <circle class="cls-2" cx="2176.56" cy="605.05" r="250"/>
    <g>
      <path class="cls-1" d="M1747.99,1505.76c-111.87,0-205.78-6.48-287.08-19.81-92.44-15.16-167.32-38.8-228.93-72.28-66.45-36.11-115.19-82.46-149-141.71-36.49-63.93-54.99-144.12-54.99-238.33s23.42-174.11,69.61-244.76c41.18-63,100.59-117.23,176.57-161.18,67.79-39.21,146.95-69.43,235.3-89.81,77.76-17.94,160.24-27.42,238.51-27.42s160.75,9.48,238.51,27.42c88.35,20.38,167.52,50.59,235.3,89.81,75.98,43.95,135.39,98.18,176.58,161.18,46.19,70.65,69.61,153,69.61,244.76s-18.5,174.4-54.99,238.33c-33.81,59.24-82.55,105.59-149,141.71-61.61,33.48-136.49,57.12-228.93,72.28-81.3,13.33-175.21,19.81-287.08,19.81h0Z"/>
      <path class="cls-3" d="M1747.99,540.45c76.04,0,156.18,9.21,231.77,26.65,85.44,19.71,161.82,48.82,227.02,86.54,71.88,41.58,127.89,92.6,166.49,151.63,20.72,31.7,36.67,66.22,47.39,102.61,11.5,39.03,17.33,81.33,17.33,125.74s-4.58,88.62-13.61,126.63c-8.44,35.52-21.04,68.1-37.44,96.83-15.55,27.25-35.12,52.06-58.17,73.76-22.46,21.15-49.08,40.14-79.1,56.46-29.45,16-63.16,29.97-100.2,41.51-35.83,11.16-75.95,20.42-119.26,27.53-79.68,13.07-172,19.42-282.22,19.42s-202.54-6.35-282.22-19.42c-43.31-7.1-83.43-16.36-119.26-27.53-37.04-11.54-70.75-25.51-100.2-41.51-30.03-16.32-56.64-35.31-79.1-56.46-23.05-21.7-42.62-46.51-58.17-73.76-16.4-28.73-29-61.31-37.44-96.83-9.03-38.01-13.61-80.62-13.61-126.63s5.83-86.71,17.33-125.74c10.72-36.39,26.67-70.91,47.39-102.61,38.59-59.03,94.61-110.05,166.49-151.63,65.2-37.72,141.58-66.84,227.02-86.54,75.59-17.43,155.73-26.65,231.77-26.65M1747.99,480.45c-303.57,0-750,138.96-750,553.17s335.79,502.14,750,502.14,750-87.92,750-502.14-446.43-553.17-750-553.17h0Z"/>
    </g>
    <circle class="cls-2" cx="1444.41" cy="908.62" r="125"/>
    <circle class="cls-2" cx="2051.56" cy="908.62" r="125"/>
    <path class="cls-2" d="M1872.99,1158.62c0,2.47-.04,4.92-.12,7.37-5.12,160.05-244.65,160.05-249.76,0-.08-2.45-.12-4.91-.12-7.37,0-138.07,55.96-250,125-250s125,111.93,125,250Z"/>
  </g>
  <g id="Typo">
    <g>
      <path class="cls-3" d="M2749.75,1136.75v-365h82v365h-82ZM2989.25,1136.75l-125.5-170.5h-50.5l153-194.5h94l-137.5,174.5-1-35.5,167,226h-99.5Z"/>
      <path class="cls-3" d="M3245.76,1146.75c-24,0-45.34-3.75-64-11.25-18.67-7.5-34.5-17.83-47.5-31-13-13.16-22.84-28.16-29.5-45-6.67-16.83-10-34.58-10-53.25v-11.5c0-19,3.5-37.08,10.5-54.25,7-17.16,17.08-32.25,30.25-45.25,13.16-13,29.08-23.25,47.75-30.75,18.66-7.5,39.5-11.25,62.5-11.25s44.75,3.75,63.25,11.25,34.25,17.75,47.25,30.75,23,28.09,30,45.25c7,17.17,10.5,35.25,10.5,54.25v11.5c0,18.67-3.34,36.42-10,53.25-6.67,16.84-16.42,31.84-29.25,45-12.84,13.17-28.59,23.5-47.25,31-18.67,7.5-40.17,11.25-64.5,11.25ZM3245.76,1078.75c15.66,0,28.66-3.33,39-10,10.33-6.66,18.16-16,23.5-28,5.33-12,8-25.33,8-40,0-15.66-2.75-29.41-8.25-41.25-5.5-11.83-13.5-21.16-24-28-10.5-6.83-23.25-10.25-38.25-10.25s-27.34,3.42-38,10.25c-10.67,6.84-18.75,16.17-24.25,28-5.5,11.84-8.25,25.59-8.25,41.25,0,14.67,2.66,28,8,40,5.33,12,13.33,21.34,24,28,10.66,6.67,23.5,10,38.5,10Z"/>
      <path class="cls-3" d="M3530.76,1143.75c-19.67,0-36.92-3.5-51.75-10.5-14.84-7-26.42-17.08-34.75-30.25-8.34-13.16-12.5-28.91-12.5-47.25,0-20,5.16-36.41,15.5-49.25,10.33-12.83,24.83-22.33,43.5-28.5,18.66-6.16,40.16-9.25,64.5-9.25h58.5v44.5h-59c-14,0-24.75,3.42-32.25,10.25-7.5,6.84-11.25,16.09-11.25,27.75,0,11,3.75,19.92,11.25,26.75,7.5,6.84,18.25,10.25,32.25,10.25,9,0,17.08-1.58,24.25-4.75,7.16-3.16,13.08-8.58,17.75-16.25,4.66-7.66,7.33-18.33,8-32l19,20c-1.67,19-6.25,35-13.75,48s-17.84,23-31,30c-13.17,7-29.25,10.5-48.25,10.5ZM3618.26,1136.75v-81h-13.5v-87.5c0-14.33-3.34-24.91-10-31.75-6.67-6.83-17.34-10.25-32-10.25-7.34,0-17,.17-29,.5-12,.34-24.42.75-37.25,1.25-12.84.5-24.42,1.09-34.75,1.75v-67.5c8-.66,17.16-1.33,27.5-2,10.33-.66,21-1.16,32-1.5,11-.33,21.33-.5,31-.5,28,0,51.58,4,70.75,12,19.16,8,33.75,20.09,43.75,36.25,10,16.17,15,36.92,15,62.25v168h-63.5Z"/>
      <path class="cls-3" d="M3720.75,830.75v-59h113v59h-113ZM3753.25,1136.75v-365h80.5v365h-80.5Z"/>
      <path class="cls-3" d="M3985.25,1143.75c-19.67,0-36.92-3.5-51.75-10.5-14.84-7-26.42-17.08-34.75-30.25-8.34-13.16-12.5-28.91-12.5-47.25,0-20,5.16-36.41,15.5-49.25,10.33-12.83,24.83-22.33,43.5-28.5,18.66-6.16,40.16-9.25,64.5-9.25h58.5v44.5h-59c-14,0-24.75,3.42-32.25,10.25-7.5,6.84-11.25,16.09-11.25,27.75,0,11,3.75,19.92,11.25,26.75,7.5,6.84,18.25,10.25,32.25,10.25,9,0,17.08-1.58,24.25-4.75,7.16-3.16,13.08-8.58,17.75-16.25,4.66-7.66,7.33-18.33,8-32l19,20c-1.67,19-6.25,35-13.75,48s-17.84,23-31,30c-13.17,7-29.25,10.5-48.25,10.5ZM4072.75,1136.75v-81h-13.5v-87.5c0-14.33-3.34-24.91-10-31.75-6.67-6.83-17.34-10.25-32-10.25-7.34,0-17,.17-29,.5-12,.34-24.42.75-37.25,1.25-12.84.5-24.42,1.09-34.75,1.75v-67.5c8-.66,17.16-1.33,27.5-2,10.33-.66,21-1.16,32-1.5,11-.33,21.33-.5,31-.5,28,0,51.58,4,70.75,12,19.16,8,33.75,20.09,43.75,36.25,10,16.17,15,36.92,15,62.25v168h-63.5Z"/>
      <path class="cls-3" d="M4208.75,1136.75v-365h82v365h-82ZM4448.25,1136.75l-125.5-170.5h-50.5l153-194.5h94l-137.5,174.5-1-35.5,167,226h-99.5Z"/>
      <path class="cls-3" d="M4696.75,1146.75c-23.34,0-43.92-4-61.75-12-17.84-8-32.75-18.83-44.75-32.5-12-13.66-21.09-28.91-27.25-45.75-6.17-16.83-9.25-34.08-9.25-51.75v-10c0-18.33,3.08-35.91,9.25-52.75,6.16-16.83,15.16-31.91,27-45.25,11.83-13.33,26.5-23.91,44-31.75,17.5-7.83,37.41-11.75,59.75-11.75,29.33,0,54.08,6.59,74.25,19.75,20.16,13.17,35.58,30.34,46.25,51.5,10.66,21.17,16,44.25,16,69.25v27h-242.5v-45.5h194l-26.5,21.5c0-16.66-2.25-30.75-6.75-42.25s-11.34-20.33-20.5-26.5c-9.17-6.16-20.59-9.25-34.25-9.25s-25.84,3.09-35.5,9.25c-9.67,6.17-17,15.34-22,27.5-5,12.17-7.5,27.09-7.5,44.75,0,16.34,2.33,30.59,7,42.75,4.66,12.17,12,21.59,22,28.25,10,6.67,23,10,39,10,14.66,0,26.66-2.83,36-8.5,9.33-5.66,15.66-12.66,19-21h73.5c-4,18.34-11.84,34.67-23.5,49-11.67,14.34-26.34,25.59-44,33.75-17.67,8.16-38,12.25-61,12.25Z"/>
      <path class="cls-3" d="M4930.25,1130.75l-84.5-268h81l79.5,268h-76ZM4877.25,1245.25v-68h57c8.66,0,16-1.09,22-3.25,6-2.17,10.83-5.75,14.5-10.75,3.66-5,6.66-11.84,9-20.5l67-280h76.5l-76.5,296c-5.34,21.33-12.75,38.41-22.25,51.25-9.5,12.83-22.17,21.91-38,27.25-15.84,5.33-35.92,8-60.25,8h-49ZM4963.25,1130.75v-62.5h58v62.5h-58Z"/>
    </g>
  </g>
</svg>