<?xml version="1.0" encoding="UTF-8"?>
<svg id="Calque_1" xmlns="http://www.w3.org/2000/svg" version="1.1" viewBox="0 0 4125.3 1180.7">
  <!-- Generator: Adobe Illustrator 29.1.0, SVG Export Plug-In . SVG Version: 2.1.0 Build 142)  -->
  <defs>
    <style>
      .st0 {
        fill: #fbf9f6;
      }

      .st1 {
        stroke: #1d1d1b;
        stroke-miterlimit: 10;
      }

      .st1, .st2 {
        fill: #262626;
      }
    </style>
  </defs>
  <g id="Logo">
    <circle class="st1" cx="321.4" cy="250" r="250"/>
    <circle class="st1" cx="1178.6" cy="250" r="250"/>
    <g>
      <path class="st0" d="M750,1150.7c-111.9,0-205.8-6.5-287.1-19.8-92.4-15.2-167.3-38.8-228.9-72.3-66.4-36.1-115.2-82.5-149-141.7-36.5-63.9-55-144.1-55-238.3s23.4-174.1,69.6-244.8c41.2-63,100.6-117.2,176.6-161.2,67.8-39.2,146.9-69.4,235.3-89.8,77.8-17.9,160.2-27.4,238.5-27.4s160.8,9.5,238.5,27.4c88.4,20.4,167.5,50.6,235.3,89.8,76,44,135.4,98.2,176.6,161.2,46.2,70.7,69.6,153,69.6,244.8s-18.5,174.4-55,238.3c-33.8,59.2-82.6,105.6-149,141.7-61.6,33.5-136.5,57.1-228.9,72.3-81.3,13.3-175.2,19.8-287.1,19.8h0Z"/>
      <path class="st2" d="M750,185.4c76,0,156.2,9.2,231.8,26.7,85.4,19.7,161.8,48.8,227,86.5,71.9,41.6,127.9,92.6,166.5,151.6,20.7,31.7,36.7,66.2,47.4,102.6,11.5,39,17.3,81.3,17.3,125.7s-4.6,88.6-13.6,126.6c-8.4,35.5-21,68.1-37.4,96.8-15.6,27.2-35.1,52.1-58.2,73.8-22.5,21.2-49.1,40.1-79.1,56.5-29.4,16-63.2,30-100.2,41.5-35.8,11.2-75.9,20.4-119.3,27.5-79.7,13.1-172,19.4-282.2,19.4s-202.5-6.3-282.2-19.4c-43.3-7.1-83.4-16.4-119.3-27.5-37-11.5-70.8-25.5-100.2-41.5-30-16.3-56.6-35.3-79.1-56.5-23.1-21.7-42.6-46.5-58.2-73.8-16.4-28.7-29-61.3-37.4-96.8-9-38-13.6-80.6-13.6-126.6s5.8-86.7,17.3-125.7c10.7-36.4,26.7-70.9,47.4-102.6,38.6-59,94.6-110,166.5-151.6,65.2-37.7,141.6-66.8,227-86.5,75.6-17.4,155.7-26.7,231.8-26.7M750,125.4C446.4,125.4,0,264.4,0,678.6s335.8,502.1,750,502.1,750-87.9,750-502.1S1053.6,125.4,750,125.4h0Z"/>
    </g>
    <circle class="st1" cx="446.4" cy="553.6" r="125"/>
    <circle class="st1" cx="1053.6" cy="553.6" r="125"/>
    <path class="st1" d="M875,803.6c0,2.5,0,4.9-.1,7.4-5.1,160.1-244.7,160.1-249.8,0,0-2.4-.1-4.9-.1-7.4,0-138.1,56-250,125-250s125,111.9,125,250Z"/>
  </g>
  <g id="Typo">
    <g>
      <path class="st2" d="M1751.8,781.7v-365h82v365h-82ZM1991.3,781.7l-125.5-170.5h-50.5l153-194.5h94l-137.5,174.5-1-35.5,167,226h-99.5Z"/>
      <path class="st2" d="M2247.8,791.7c-24,0-45.3-3.8-64-11.2-18.7-7.5-34.5-17.8-47.5-31-13-13.2-22.8-28.2-29.5-45-6.7-16.8-10-34.6-10-53.2v-11.5c0-19,3.5-37.1,10.5-54.2,7-17.2,17.1-32.2,30.2-45.2,13.2-13,29.1-23.2,47.8-30.8,18.7-7.5,39.5-11.2,62.5-11.2s44.8,3.8,63.2,11.2,34.2,17.8,47.2,30.8,23,28.1,30,45.2c7,17.2,10.5,35.2,10.5,54.2v11.5c0,18.7-3.3,36.4-10,53.2-6.7,16.8-16.4,31.8-29.2,45-12.8,13.2-28.6,23.5-47.2,31-18.7,7.5-40.2,11.2-64.5,11.2ZM2247.8,723.7c15.7,0,28.7-3.3,39-10,10.3-6.7,18.2-16,23.5-28,5.3-12,8-25.3,8-40s-2.8-29.4-8.2-41.2c-5.5-11.8-13.5-21.2-24-28-10.5-6.8-23.2-10.2-38.2-10.2s-27.3,3.4-38,10.2c-10.7,6.8-18.8,16.2-24.2,28-5.5,11.8-8.2,25.6-8.2,41.2s2.7,28,8,40c5.3,12,13.3,21.3,24,28,10.7,6.7,23.5,10,38.5,10Z"/>
      <path class="st2" d="M2532.8,788.7c-19.7,0-36.9-3.5-51.8-10.5-14.8-7-26.4-17.1-34.8-30.2-8.3-13.2-12.5-28.9-12.5-47.2s5.2-36.4,15.5-49.2c10.3-12.8,24.8-22.3,43.5-28.5,18.7-6.2,40.2-9.2,64.5-9.2h58.5v44.5h-59c-14,0-24.8,3.4-32.2,10.2-7.5,6.8-11.2,16.1-11.2,27.8s3.8,19.9,11.2,26.8c7.5,6.8,18.2,10.2,32.2,10.2s17.1-1.6,24.2-4.8c7.2-3.2,13.1-8.6,17.8-16.2,4.7-7.7,7.3-18.3,8-32l19,20c-1.7,19-6.2,35-13.8,48s-17.8,23-31,30c-13.2,7-29.2,10.5-48.2,10.5ZM2620.3,781.7v-81h-13.5v-87.5c0-14.3-3.3-24.9-10-31.8-6.7-6.8-17.3-10.2-32-10.2s-17,.2-29,.5c-12,.3-24.4.8-37.2,1.2-12.8.5-24.4,1.1-34.8,1.8v-67.5c8-.7,17.2-1.3,27.5-2,10.3-.7,21-1.2,32-1.5,11-.3,21.3-.5,31-.5,28,0,51.6,4,70.8,12,19.2,8,33.8,20.1,43.8,36.2,10,16.2,15,36.9,15,62.2v168h-63.5Z"/>
      <path class="st2" d="M2722.8,475.7v-59h113v59h-113ZM2755.3,781.7v-365h80.5v365h-80.5Z"/>
      <path class="st2" d="M2987.3,788.7c-19.7,0-36.9-3.5-51.8-10.5-14.8-7-26.4-17.1-34.8-30.2-8.3-13.2-12.5-28.9-12.5-47.2s5.2-36.4,15.5-49.2c10.3-12.8,24.8-22.3,43.5-28.5,18.7-6.2,40.2-9.2,64.5-9.2h58.5v44.5h-59c-14,0-24.8,3.4-32.2,10.2-7.5,6.8-11.2,16.1-11.2,27.8s3.8,19.9,11.2,26.8c7.5,6.8,18.2,10.2,32.2,10.2s17.1-1.6,24.2-4.8c7.2-3.2,13.1-8.6,17.8-16.2,4.7-7.7,7.3-18.3,8-32l19,20c-1.7,19-6.2,35-13.8,48s-17.8,23-31,30c-13.2,7-29.2,10.5-48.2,10.5ZM3074.8,781.7v-81h-13.5v-87.5c0-14.3-3.3-24.9-10-31.8-6.7-6.8-17.3-10.2-32-10.2s-17,.2-29,.5c-12,.3-24.4.8-37.2,1.2-12.8.5-24.4,1.1-34.8,1.8v-67.5c8-.7,17.2-1.3,27.5-2,10.3-.7,21-1.2,32-1.5,11-.3,21.3-.5,31-.5,28,0,51.6,4,70.8,12,19.2,8,33.8,20.1,43.8,36.2,10,16.2,15,36.9,15,62.2v168h-63.5Z"/>
      <path class="st2" d="M3210.8,781.7v-365h82v365h-82ZM3450.3,781.7l-125.5-170.5h-50.5l153-194.5h94l-137.5,174.5-1-35.5,167,226h-99.5Z"/>
      <path class="st2" d="M3698.8,791.7c-23.3,0-43.9-4-61.8-12-17.8-8-32.8-18.8-44.8-32.5-12-13.7-21.1-28.9-27.2-45.8-6.2-16.8-9.2-34.1-9.2-51.8v-10c0-18.3,3.1-35.9,9.2-52.8,6.2-16.8,15.2-31.9,27-45.2,11.8-13.3,26.5-23.9,44-31.8,17.5-7.8,37.4-11.8,59.8-11.8s54.1,6.6,74.2,19.8c20.2,13.2,35.6,30.3,46.2,51.5,10.7,21.2,16,44.2,16,69.2v27h-242.5v-45.5h194l-26.5,21.5c0-16.7-2.2-30.8-6.8-42.2s-11.3-20.3-20.5-26.5c-9.2-6.2-20.6-9.2-34.2-9.2s-25.8,3.1-35.5,9.2c-9.7,6.2-17,15.3-22,27.5-5,12.2-7.5,27.1-7.5,44.8s2.3,30.6,7,42.8c4.7,12.2,12,21.6,22,28.2,10,6.7,23,10,39,10s26.7-2.8,36-8.5c9.3-5.7,15.7-12.7,19-21h73.5c-4,18.3-11.8,34.7-23.5,49-11.7,14.3-26.3,25.6-44,33.8-17.7,8.2-38,12.2-61,12.2Z"/>
      <path class="st2" d="M3932.3,775.7l-84.5-268h81l79.5,268h-76ZM3879.3,890.2v-68h57c8.7,0,16-1.1,22-3.2,6-2.2,10.8-5.8,14.5-10.8,3.7-5,6.7-11.8,9-20.5l67-280h76.5l-76.5,296c-5.3,21.3-12.8,38.4-22.2,51.2-9.5,12.8-22.2,21.9-38,27.2-15.8,5.3-35.9,8-60.2,8h-49ZM3965.3,775.7v-62.5h58v62.5h-58Z"/>
    </g>
  </g>
</svg>