<?xml version="1.0" encoding="UTF-8"?>
<svg id="Logo" xmlns="http://www.w3.org/2000/svg" viewBox="0 0 2005 2005">
  <defs>
    <style>
      .cls-1, .cls-2 {
        fill: #262626;
      }

      .cls-3 {
        fill: #fbf9f6;
      }

      .cls-2 {
        stroke: #1d1d1b;
        stroke-miterlimit: 10;
      }
    </style>
  </defs>
  <circle class="cls-2" cx="573.93" cy="573.93" r="250"/>
  <circle class="cls-2" cx="1431.07" cy="573.93" r="250"/>
  <g>
    <path class="cls-3" d="M1002.5,1500.15c-111.87,0-205.78-6.48-287.08-19.81-92.44-15.16-167.32-38.8-228.93-72.28-66.45-36.11-115.19-82.46-149-141.71-36.49-63.93-54.99-144.12-54.99-238.33s23.42-174.11,69.61-244.76c41.18-63,100.59-117.23,176.57-161.18,67.79-39.21,146.95-69.43,235.3-89.81,77.76-17.94,160.24-27.42,238.51-27.42s160.75,9.48,238.51,27.42c88.35,20.38,167.52,50.59,235.3,89.81,75.98,43.96,135.39,98.19,176.57,161.18,46.19,70.65,69.61,153,69.61,244.76s-18.5,174.4-54.99,238.33c-33.81,59.24-82.55,105.59-149,141.71-61.61,33.48-136.49,57.12-228.93,72.28-81.3,13.33-175.21,19.81-287.08,19.81Z"/>
    <path class="cls-1" d="M1002.5,534.85c76.04,0,156.18,9.21,231.77,26.65,85.44,19.71,161.82,48.82,227.02,86.54,71.88,41.58,127.89,92.6,166.49,151.63,20.72,31.7,36.67,66.22,47.39,102.61,11.5,39.03,17.33,81.33,17.33,125.74s-4.58,88.62-13.61,126.63c-8.44,35.52-21.04,68.1-37.44,96.83-15.55,27.25-35.12,52.06-58.17,73.76-22.46,21.15-49.08,40.14-79.1,56.46-29.45,16-63.16,29.97-100.2,41.51-35.83,11.16-75.95,20.42-119.26,27.53-79.68,13.07-172,19.42-282.22,19.42s-202.54-6.35-282.22-19.42c-43.31-7.1-83.43-16.36-119.26-27.53-37.04-11.54-70.75-25.51-100.2-41.51-30.03-16.32-56.64-35.31-79.1-56.46-23.05-21.7-42.62-46.51-58.17-73.76-16.4-28.73-29-61.31-37.44-96.83-9.03-38.01-13.61-80.62-13.61-126.63s5.83-86.71,17.33-125.74c10.72-36.39,26.67-70.91,47.39-102.61,38.59-59.03,94.61-110.05,166.49-151.63,65.2-37.72,141.58-66.84,227.02-86.54,75.59-17.43,155.73-26.65,231.77-26.65M1002.5,474.85c-303.57,0-750,138.96-750,553.17s335.79,502.14,750,502.14,750-87.92,750-502.14-446.43-553.17-750-553.17h0Z"/>
  </g>
  <circle class="cls-2" cx="698.93" cy="877.5" r="125"/>
  <circle class="cls-2" cx="1306.07" cy="877.5" r="125"/>
  <path class="cls-2" d="M1127.5,1127.5c0,2.47-.04,4.92-.12,7.37-5.12,160.05-244.65,160.05-249.76,0-.08-2.45-.12-4.91-.12-7.37,0-138.07,55.96-250,125-250s125,111.93,125,250Z"/>
</svg>