<?xml version="1.0" encoding="UTF-8"?>
<svg id="Calque_1" xmlns="http://www.w3.org/2000/svg" version="1.1" viewBox="0 0 16 16">
  <!-- Generator: Adobe Illustrator 29.1.0, SVG Export Plug-In . SVG Version: 2.1.0 Build 142)  -->
  <defs>
    <style>
      .st0 {
        fill: #faf8f5;
      }

      .st1 {
        fill: #262626;
      }
    </style>
  </defs>
  <rect class="st0" x="3.2" y="3.2" width="9.7" height="9.7"/>
  <path class="st1" d="M0,14c0,1.1.9,2,2,2h12c1.1,0,2-.9,2-2V2c0-1.1-.9-2-2-2H2C.9,0,0,.9,0,2v12ZM4.5,7.5h5.8l-2.1-2.1c-.2-.2-.2-.5,0-.7s.5-.2.7,0l3,3c.2.2.2.5,0,.7,0,0,0,0,0,0l-3,3c-.2.2-.5.2-.7,0s-.2-.5,0-.7l2.1-2.1h-5.8c-.3,0-.5-.2-.5-.5s.2-.5.5-.5"/>
</svg>