<?xml version="1.0" encoding="UTF-8"?>
<svg id="Calque_1" xmlns="http://www.w3.org/2000/svg" version="1.1" viewBox="0 0 16 16">
  <!-- Generator: Adobe Illustrator 29.1.0, SVG Export Plug-In . SVG Version: 2.1.0 Build 142)  -->
  <defs>
    <style>
      .st0 {
        fill: #262626;
      }
    </style>
  </defs>
  <path class="st0" d="M5,15c6,0,9.3-5,9.3-9.3,0-.1,0-.3,0-.4.6-.5,1.2-1,1.6-1.7-.6.3-1.2.4-1.9.5.7-.4,1.2-1.1,1.4-1.8-.6.4-1.4.7-2.1.8-1.2-1.3-3.3-1.4-4.6-.1-.9.8-1.2,2-1,3.1-2.6-.1-5.1-1.4-6.8-3.4-.9,1.5-.4,3.4,1,4.4-.5,0-1-.2-1.5-.4h0c0,1.6,1.1,3,2.6,3.3-.3,0-.6.1-.9.1-.2,0-.4,0-.6,0,.4,1.3,1.7,2.3,3.1,2.3-1.2.9-2.6,1.4-4.1,1.4-.3,0-.5,0-.8,0,1.5,1,3.2,1.5,5,1.5"/>
</svg>